<?xml version="1.0" standalone="no"?>
<!DOCTYPE svg PUBLIC "-//W3C//DTD SVG 20010904//EN"
 "http://www.w3.org/TR/2001/REC-SVG-20010904/DTD/svg10.dtd">
<svg version="1.0" xmlns="http://www.w3.org/2000/svg"
 width="900.000000pt" height="720.000000pt" viewBox="0 0 900.000000 720.000000"
 preserveAspectRatio="xMidYMid meet">
<metadata>
Created by potrace 1.16, written by Peter Selinger 2001-2019
</metadata>
<g transform="translate(0.000000,720.000000) scale(0.100000,-0.100000)"
fill="#000000" stroke="none">
<path d="M7073 7158 c-110 -92 -273 -306 -603 -794 -112 -164 -251 -364 -309
-443 -278 -379 -1514 -2015 -2565 -3394 -1055 -1386 -1629 -2167 -1760 -2397
-37 -67 -66 -124 -62 -127 16 -17 159 133 406 427 82 98 502 630 675 855 734
957 1050 1372 1300 1705 159 212 384 509 500 660 116 151 386 507 600 790 214
283 488 646 610 805 122 160 294 387 383 505 89 118 198 258 243 310 162 189
501 636 615 810 92 140 118 200 110 255 -8 49 -20 62 -62 70 -24 5 -38 -2 -81
-37z m-19 -167 c14 -16 15 -23 6 -41 -37 -69 -534 -740 -548 -740 -23 0 -44
28 -38 48 11 32 290 431 399 571 53 67 104 135 114 152 20 34 43 37 67 10z"/>
</g>
</svg>
