<?xml version="1.0" standalone="no"?>
<!DOCTYPE svg PUBLIC "-//W3C//DTD SVG 20010904//EN"
 "http://www.w3.org/TR/2001/REC-SVG-20010904/DTD/svg10.dtd">
<svg version="1.0" xmlns="http://www.w3.org/2000/svg"
 width="900.000000pt" height="598.000000pt" viewBox="0 0 900.000000 598.000000"
 preserveAspectRatio="xMidYMid meet">
<metadata>
Created by potrace 1.16, written by Peter Selinger 2001-2019
</metadata>
<g transform="translate(0.000000,598.000000) scale(0.100000,-0.100000)"
fill="#000000" stroke="none">
<path d="M3887 5969 c-289 -33 -547 -224 -676 -501 -64 -136 -75 -191 -75
-368 0 -98 5 -166 12 -184 11 -24 10 -27 -2 -23 -87 34 -255 41 -342 14 -212
-63 -345 -227 -345 -421 1 -125 43 -219 138 -308 177 -164 470 -178 674 -32
75 55 155 179 171 267 3 15 10 12 53 -19 72 -52 198 -111 290 -135 95 -24 250
-35 321 -22 l51 10 -1 -124 c-1 -67 -3 -122 -6 -120 -51 28 -145 64 -220 85
-83 22 -115 25 -250 26 -127 0 -170 -4 -237 -22 -311 -81 -535 -276 -630 -547
-25 -72 -28 -93 -28 -215 0 -103 5 -149 19 -195 67 -216 220 -393 431 -496
119 -57 216 -85 344 -98 387 -40 766 151 920 464 58 116 75 190 75 323 1 96 3
111 16 106 8 -4 51 -18 95 -32 69 -22 99 -26 215 -26 101 0 151 4 199 18 97
27 202 80 278 141 37 30 68 53 69 52 1 -1 4 -35 7 -74 5 -66 4 -73 -13 -73
-27 0 -153 -53 -217 -92 -218 -132 -367 -364 -392 -612 -7 -77 0 -211 14 -255
6 -20 5 -20 -32 -7 -154 54 -461 69 -633 32 -311 -67 -572 -233 -738 -469 -49
-71 -58 -78 -81 -73 -203 43 -403 30 -591 -38 -301 -111 -546 -397 -615 -721
-21 -96 -24 -301 -6 -395 42 -220 182 -451 354 -588 118 -94 292 -175 437
-203 93 -18 299 -15 392 5 252 54 478 206 618 416 24 36 44 66 45 68 1 1 21
-5 45 -13 198 -70 486 -80 704 -24 440 112 756 426 840 832 33 158 12 384 -48
528 -6 14 2 14 66 7 126 -15 326 20 441 79 383 193 562 600 434 984 l-24 69
66 37 c80 44 215 177 258 253 18 30 44 91 59 135 23 67 27 97 27 190 1 131
-12 193 -63 300 -70 144 -173 246 -325 320 -251 122 -562 90 -771 -81 l-41
-33 -12 87 c-7 48 -14 99 -18 115 -5 24 -2 27 19 27 13 0 47 7 74 17 313 105
408 527 176 775 -245 263 -673 126 -743 -237 -7 -33 -13 -61 -13 -62 -1 -1
-31 5 -66 13 -36 8 -104 16 -152 17 -48 1 -88 5 -88 9 0 4 7 37 16 75 9 41 16
112 16 178 -1 444 -324 809 -764 865 -91 11 -121 11 -221 -1z m273 -140 c276
-58 506 -289 566 -569 18 -85 17 -227 -1 -315 -28 -133 -124 -297 -226 -389
-157 -141 -384 -213 -586 -186 -245 32 -421 151 -556 375 -148 244 -121 585
63 817 177 222 461 324 740 267z m1553 -742 c66 -31 120 -85 155 -156 23 -48
27 -68 27 -146 0 -76 -4 -99 -26 -146 -15 -31 -43 -75 -64 -97 -128 -142 -355
-120 -463 44 -42 63 -56 113 -56 204 -2 235 223 392 427 297z m-2638 -312 c96
-27 182 -102 221 -195 9 -19 15 -63 15 -97 0 -151 -125 -277 -299 -301 -336
-46 -553 285 -332 506 98 96 243 128 395 87z m2026 -93 c29 -10 56 -24 60 -32
4 -8 21 -46 39 -83 43 -92 121 -170 215 -213 86 -40 94 -56 102 -213 7 -127
-5 -189 -60 -301 -144 -295 -512 -422 -816 -280 -92 44 -124 71 -176 151 -25
39 -66 92 -91 119 -60 64 -85 141 -87 265 0 50 5 113 12 140 12 50 14 51 81
83 139 65 293 204 367 332 14 25 28 47 30 50 9 10 130 15 200 8 40 -4 96 -16
124 -26z m1241 -561 c79 -25 203 -105 253 -164 150 -174 181 -408 80 -607 -51
-101 -161 -203 -271 -252 -334 -149 -709 21 -810 368 -22 77 -16 226 14 309
63 172 231 318 419 361 80 18 230 11 315 -15z m-2451 -160 c216 -55 395 -190
486 -367 51 -100 68 -167 67 -274 -3 -282 -213 -530 -526 -621 -102 -29 -305
-37 -410 -15 -365 75 -615 360 -595 676 20 310 283 564 642 620 85 13 247 4
336 -19z m1643 -696 c59 -114 207 -244 336 -295 129 -52 284 -72 394 -51 33 6
61 9 63 7 13 -13 44 -126 52 -192 12 -99 0 -209 -33 -304 -73 -212 -284 -395
-512 -445 -106 -24 -292 -17 -384 15 -244 85 -421 272 -476 505 -24 102 -15
266 20 363 71 204 225 355 441 433 28 10 55 18 60 19 6 0 23 -25 39 -55z
m-854 -894 c47 -11 117 -31 157 -46 67 -25 74 -31 101 -79 74 -129 191 -239
339 -316 81 -42 89 -50 114 -100 53 -106 74 -202 74 -345 -1 -158 -17 -229
-85 -370 -138 -282 -421 -479 -770 -536 -148 -24 -418 -3 -534 41 l-25 9 19
57 c56 162 64 380 20 554 -66 268 -262 515 -502 636 -38 19 -68 37 -68 40 0 3
25 39 56 80 154 205 424 355 709 393 98 14 294 4 395 -18z m-1355 -535 c228
-62 404 -186 525 -371 126 -194 170 -453 114 -675 -60 -238 -235 -455 -459
-568 -241 -121 -558 -113 -795 20 -203 114 -359 313 -415 528 -125 484 167
962 655 1071 102 23 280 20 375 -5z"/>
<path d="M4008 5515 c-18 -26 -33 -51 -33 -57 0 -10 242 -187 256 -188 3 0 22
24 41 53 l36 53 -121 85 c-66 46 -126 88 -134 92 -9 5 -23 -7 -45 -38z"/>
<path d="M5486 4946 c-20 -24 -36 -49 -36 -54 0 -5 53 -49 118 -99 l117 -90
38 49 c20 26 37 51 36 55 0 7 -212 174 -229 181 -4 1 -23 -17 -44 -42z"/>
<path d="M3028 4670 l-47 -38 50 -64 c28 -34 52 -65 55 -67 2 -2 26 16 54 39
l50 42 -49 61 c-26 34 -52 62 -57 63 -5 2 -30 -15 -56 -36z"/>
<path d="M4945 4509 c-21 -28 -34 -54 -29 -58 25 -23 275 -201 282 -201 4 0
24 22 45 50 l37 49 -53 39 c-186 137 -235 172 -240 172 -3 0 -22 -23 -42 -51z"/>
<path d="M6346 3893 c-20 -25 -36 -49 -36 -52 0 -10 224 -180 235 -178 6 1 26
22 47 48 l36 46 -118 91 c-65 51 -120 92 -123 92 -2 0 -21 -21 -41 -47z"/>
<path d="M3677 3865 c-21 -24 -36 -48 -33 -53 3 -6 51 -49 105 -96 l100 -87
41 45 c23 25 41 48 40 53 -2 10 -199 183 -208 182 -4 0 -24 -21 -45 -44z"/>
<path d="M5541 3008 c-17 -29 -31 -56 -31 -59 0 -7 275 -159 287 -159 9 0 68
109 62 114 -2 1 -40 22 -84 46 -44 23 -108 58 -142 77 l-62 34 -30 -53z"/>
<path d="M4731 2165 c-17 -30 -31 -57 -31 -59 0 -6 196 -116 207 -116 12 0 65
98 58 109 -3 5 -36 26 -73 47 -37 20 -81 45 -98 55 l-32 19 -31 -55z"/>
<path d="M3033 1655 l-32 -55 22 -14 c161 -100 297 -173 305 -163 5 7 20 32
35 58 l26 45 -159 92 c-88 51 -161 92 -163 92 -1 0 -17 -25 -34 -55z"/>
</g>
</svg>
