<?xml version="1.0" standalone="no"?>
<!DOCTYPE svg PUBLIC "-//W3C//DTD SVG 20010904//EN"
 "http://www.w3.org/TR/2001/REC-SVG-20010904/DTD/svg10.dtd">
<svg version="1.0" xmlns="http://www.w3.org/2000/svg"
 width="225.000000pt" height="225.000000pt" viewBox="0 0 225.000000 225.000000"
 preserveAspectRatio="xMidYMid meet">

<g transform="translate(0.000000,225.000000) scale(0.100000,-0.100000)"
fill="#000000" stroke="none">
<path d="M524 2236 c-16 -12 -20 -31 -25 -138 -7 -138 -22 -180 -98 -271 -28
-33 -49 -75 -71 -143 -24 -70 -43 -108 -73 -142 -22 -26 -54 -76 -70 -112 -26
-56 -31 -81 -37 -190 -4 -69 -12 -137 -18 -152 -38 -92 -20 -229 44 -344 31
-55 37 -77 44 -159 12 -136 55 -224 148 -298 54 -42 61 -62 62 -159 0 -74 3
-91 20 -108 26 -26 51 -25 84 1 25 19 26 25 26 112 0 136 -10 160 -96 242 -88
84 -109 128 -118 245 -5 75 -11 96 -51 177 -58 115 -64 164 -36 264 14 50 21
104 21 162 0 104 21 168 78 236 49 58 58 75 93 178 19 58 40 98 68 129 79 89
111 188 111 342 0 89 -3 105 -20 122 -23 23 -58 26 -86 6z"/>
<path d="M1650 2230 c-17 -17 -20 -33 -20 -115 0 -158 32 -259 111 -348 28
-32 49 -71 68 -130 35 -103 44 -120 93 -178 57 -67 78 -132 78 -234 0 -55 8
-115 21 -167 27 -105 22 -146 -36 -262 -39 -79 -46 -104 -54 -188 -5 -53 -17
-111 -26 -130 -9 -18 -50 -64 -90 -103 -86 -82 -95 -105 -95 -241 0 -82 2 -93
23 -112 29 -27 61 -28 87 -2 17 17 20 34 20 108 1 50 6 96 13 107 7 11 38 45
70 74 81 77 116 152 127 273 7 82 13 104 49 173 59 112 71 188 46 292 -10 43
-21 130 -25 193 -8 139 -31 205 -100 291 -37 46 -57 85 -80 154 -24 71 -43
108 -84 159 -68 86 -86 141 -86 267 0 88 -2 100 -22 119 -28 25 -62 26 -88 0z"/>
<path d="M945 1596 c-11 -8 -18 -26 -18 -46 0 -33 4 -38 68 -83 36 -26 55 -59
69 -119 9 -40 18 -56 39 -68 24 -13 30 -13 54 0 22 12 30 28 41 75 14 63 44
105 95 131 78 41 38 142 -47 120 -14 -3 -46 -22 -71 -42 l-47 -35 -22 19 c-61
57 -124 75 -161 48z"/>
<path d="M1092 1034 c-17 -12 -22 -25 -22 -58 0 -159 -69 -256 -198 -276 -82
-14 -113 -56 -76 -108 12 -18 25 -22 69 -22 58 0 145 28 176 56 15 14 20 14
24 3 3 -8 6 -147 7 -309 l3 -294 28 -16 c24 -13 30 -13 55 0 l27 16 3 307 c1
169 6 307 11 307 5 0 14 -7 21 -15 20 -24 118 -55 175 -55 44 0 57 4 69 22 36
52 6 94 -76 108 -130 21 -198 115 -198 276 0 44 -24 74 -60 74 -9 0 -26 -7
-38 -16z"/>
</g>
</svg>
