<?xml version="1.0" standalone="no"?>
<!DOCTYPE svg PUBLIC "-//W3C//DTD SVG 20010904//EN"
 "http://www.w3.org/TR/2001/REC-SVG-20010904/DTD/svg10.dtd">
<svg version="1.0" xmlns="http://www.w3.org/2000/svg"
 width="490.000000pt" height="490.000000pt" viewBox="0 0 490.000000 490.000000"
 preserveAspectRatio="xMidYMid meet">
<metadata>
Created by potrace 1.16, written by Peter Selinger 2001-2019
</metadata>
<g transform="translate(0.000000,490.000000) scale(0.100000,-0.100000)"
fill="#000000" stroke="none">
<path d="M774 3880 c-252 -253 -460 -462 -462 -464 -3 -4 181 -254 642 -875
226 -304 359 -483 613 -826 255 -345 515 -696 707 -952 141 -190 152 -202 167
-185 9 9 173 224 364 477 192 253 396 523 455 600 58 77 171 226 250 330 79
105 186 245 237 313 211 277 285 375 404 532 69 91 196 259 283 374 l159 208
-464 464 -464 464 -1216 0 -1216 0 -459 -460z m1136 -35 c-162 -162 -296 -292
-299 -290 -5 6 -191 566 -191 578 0 4 177 7 392 7 l393 0 -295 -295z m1568
283 c-3 -7 -47 -138 -99 -290 -52 -153 -96 -278 -99 -278 -3 0 -136 131 -295
290 l-290 290 394 0 c310 0 392 -3 389 -12z m-728 -323 l295 -295 -594 0 -595
0 295 295 c162 162 296 295 299 295 3 0 138 -133 300 -295z m-1431 -13 c46
-141 86 -263 88 -269 4 -10 -72 -13 -359 -13 l-363 0 270 270 c148 149 272
270 275 270 3 0 43 -116 89 -258z m2626 -12 l270 -270 -368 0 c-203 0 -367 4
-365 8 2 4 43 126 92 270 49 144 92 262 95 262 3 0 128 -121 276 -270z m-755
-489 c0 -5 -70 -215 -156 -467 -86 -253 -237 -697 -336 -989 -99 -291 -198
-582 -219 -645 -21 -63 -42 -122 -45 -130 -3 -8 -84 226 -180 520 -97 294
-209 639 -251 765 -244 747 -310 951 -308 955 5 9 1495 0 1495 -9z m-1647
-188 c36 -109 140 -427 232 -708 91 -280 209 -640 261 -799 53 -158 94 -290
92 -292 -2 -2 -69 85 -149 194 -81 108 -278 375 -439 592 -667 898 -890 1200
-890 1205 0 3 186 5 414 5 l415 0 64 -197z m2701 185 c-4 -7 -42 -58 -84 -113
-42 -55 -127 -167 -190 -250 -63 -82 -162 -213 -220 -290 -113 -149 -722 -953
-904 -1193 -60 -79 -110 -141 -112 -139 -2 2 5 30 17 63 19 55 181 530 508
1494 78 228 143 421 146 428 3 9 98 12 425 12 334 0 420 -3 414 -12z"/>
</g>
</svg>
