<?xml version="1.0" standalone="no"?>
<!DOCTYPE svg PUBLIC "-//W3C//DTD SVG 20010904//EN"
 "http://www.w3.org/TR/2001/REC-SVG-20010904/DTD/svg10.dtd">
<svg version="1.0" xmlns="http://www.w3.org/2000/svg"
 width="224.000000pt" height="224.000000pt" viewBox="0 0 224.000000 224.000000"
 preserveAspectRatio="xMidYMid meet">
<metadata>
Created by potrace 1.16, written by Peter Selinger 2001-2019
</metadata>
<g transform="translate(0.000000,224.000000) scale(0.100000,-0.100000)"
fill="#000000" stroke="none">
<path d="M1430 2091 c-112 -60 -112 -228 1 -286 45 -24 121 -21 164 5 75 47
97 157 44 234 -43 64 -138 85 -209 47z"/>
<path d="M1313 1743 c-12 -2 -104 -39 -205 -82 -228 -97 -225 -93 -209 -228 7
-54 17 -138 22 -188 11 -105 24 -142 50 -150 14 -5 19 -16 19 -42 0 -24 16
-65 46 -120 63 -115 97 -215 96 -283 0 -30 -16 -138 -35 -240 -38 -207 -37
-232 15 -275 27 -23 39 -26 72 -22 82 11 95 44 156 385 l32 181 -32 190 -32
190 38 106 c20 58 40 107 44 110 3 2 61 -15 129 -37 118 -40 124 -40 156 -25
38 18 52 57 34 98 -12 31 -51 49 -193 90 -42 12 -76 26 -76 30 0 5 12 39 26
76 28 75 28 134 0 178 -24 36 -104 67 -153 58z"/>
<path d="M730 1519 c0 -2 7 -39 15 -82 8 -43 15 -80 15 -82 0 -1 -35 6 -77 16
-43 9 -79 16 -81 14 -2 -2 17 -30 42 -62 25 -32 46 -61 46 -65 0 -3 -34 -14
-75 -24 -41 -10 -75 -21 -75 -24 0 -4 32 -20 70 -35 39 -15 70 -31 70 -35 0
-4 -25 -29 -55 -55 -30 -25 -55 -50 -55 -53 0 -4 36 -6 80 -4 l80 4 -24 -64
c-13 -35 -27 -72 -32 -82 -8 -22 -14 -24 81 36 l60 38 7 -33 c4 -17 10 -53 13
-80 3 -26 10 -45 15 -42 4 3 22 30 39 60 41 73 41 116 0 153 l-32 28 -22 202
c-12 112 -26 206 -31 210 -5 4 -24 20 -41 36 -18 17 -33 28 -33 25z"/>
</g>
</svg>
