<?xml version="1.0" standalone="no"?>
<!DOCTYPE svg PUBLIC "-//W3C//DTD SVG 20010904//EN"
 "http://www.w3.org/TR/2001/REC-SVG-20010904/DTD/svg10.dtd">
<svg version="1.0" xmlns="http://www.w3.org/2000/svg"
 width="200.000000pt" height="200.000000pt" viewBox="0 0 200.000000 200.000000"
 preserveAspectRatio="xMidYMid meet">
<metadata>
Created by potrace 1.16, written by Peter Selinger 2001-2019
</metadata>
<g transform="translate(0.000000,200.000000) scale(0.100000,-0.100000)"
fill="#000000" stroke="none">
<path d="M0 1000 l0 -1000 1000 0 1000 0 0 907 0 906 -22 -19 c-12 -10 -70
-62 -128 -114 -132 -118 -268 -233 -341 -288 -87 -66 -94 -89 -79 -268 14
-170 10 -208 -37 -404 -39 -158 -45 -254 -30 -445 9 -109 3 -133 -43 -167 -23
-16 -53 -18 -353 -22 -312 -3 -329 -2 -353 16 -30 25 -31 63 -2 82 13 8 54 22
92 30 37 9 124 44 193 77 135 66 143 75 157 164 4 24 -12 217 -39 477 -25 241
-45 473 -45 516 0 89 21 163 53 190 12 10 98 95 191 190 l170 172 -692 0 -692
0 0 -1000z m810 834 l10 28 74 -93 c41 -52 72 -96 70 -98 -2 -2 -29 20 -61 49
l-57 52 -11 -31 -10 -30 -70 59 c-38 32 -71 63 -73 68 -1 5 2 22 8 37 l11 28
49 -48 49 -48 11 27z m5 -235 c100 -33 108 -50 14 -30 -69 15 -69 15 -62 -21
l6 -31 -39 6 c-21 4 -65 9 -96 13 -57 7 -67 16 -68 63 0 13 40 11 106 -5 19
-5 21 -2 16 22 -4 21 -2 26 9 22 8 -3 59 -20 114 -39z m95 -197 c0 -4 -29 -20
-65 -36 -69 -30 -74 -36 -50 -56 8 -7 15 -16 15 -21 0 -5 -37 -27 -81 -50
l-82 -41 -25 26 -26 25 57 26 c31 13 57 28 57 31 0 4 -8 13 -17 20 -22 15 -26
13 112 53 55 16 101 30 103 30 1 1 2 -2 2 -7z"/>
<path d="M1570 1863 c-196 -160 -302 -236 -351 -252 -41 -13 -63 -34 -74 -69
-19 -62 31 -142 87 -142 44 0 85 46 93 105 10 60 36 86 310 307 110 89 207
167 215 174 12 12 4 14 -50 13 l-65 -1 -165 -135z"/>
<path d="M1106 1359 c-22 -31 -20 -47 9 -94 24 -40 24 -42 25 -291 0 -264 2
-274 47 -274 15 0 24 7 28 23 3 12 6 127 7 255 l3 232 43 39 c36 34 42 44 42
80 l0 41 -72 0 c-40 0 -83 3 -94 6 -15 4 -26 -1 -38 -17z"/>
<path d="M1250 1228 c-2 -9 -14 -411 -15 -458 0 -48 2 -55 20 -55 18 0 21 9
26 105 4 58 8 173 10 255 4 149 4 150 -18 153 -13 2 -23 2 -23 0z"/>
</g>
</svg>
