<?xml version="1.0" standalone="no"?>
<!DOCTYPE svg PUBLIC "-//W3C//DTD SVG 20010904//EN"
 "http://www.w3.org/TR/2001/REC-SVG-20010904/DTD/svg10.dtd">
<svg version="1.0" xmlns="http://www.w3.org/2000/svg"
 width="512.000000pt" height="512.000000pt" viewBox="0 0 512.000000 512.000000"
 preserveAspectRatio="xMidYMid meet">

<g transform="translate(0.000000,512.000000) scale(0.100000,-0.100000)"
fill="#000000" stroke="none">
<path d="M1052 5113 c-7 -3 -19 -17 -27 -32 -12 -25 -7 -74 52 -497 76 -538
82 -648 44 -789 -13 -50 -72 -184 -155 -355 -183 -375 -259 -574 -330 -855
-134 -536 -129 -1073 24 -2320 27 -218 28 -222 52 -245 21 -20 36 -20 873 -20
834 0 852 0 872 20 30 27 37 88 28 233 -8 130 -31 240 -65 306 l-20 41 160 0
160 0 -20 -41 c-34 -66 -57 -176 -65 -306 -9 -145 -2 -206 28 -233 20 -20 38
-20 872 -20 837 0 852 0 873 20 24 23 25 27 52 245 45 366 85 771 110 1105 24
314 9 716 -35 973 -63 365 -159 642 -381 1097 -83 171 -142 305 -155 355 -38
141 -32 251 44 789 59 421 64 472 52 496 -8 15 -22 30 -30 34 -9 3 -92 6 -184
6 -155 0 -170 -2 -195 -21 -36 -28 -36 -80 0 -108 23 -18 41 -21 140 -21 112
0 114 0 114 -22 0 -13 -25 -201 -54 -418 -68 -490 -71 -523 -57 -638 17 -142
51 -233 201 -542 76 -157 154 -325 173 -375 38 -100 111 -322 122 -372 l7 -33
-1772 0 -1772 0 7 33 c11 50 84 272 122 372 19 50 97 218 173 375 150 309 184
400 201 542 14 116 11 149 -59 661 l-58 417 1137 0 c626 0 1145 3 1154 6 8 4
23 20 31 36 13 25 13 35 3 59 -6 17 -20 34 -30 39 -18 10 -2392 13 -2417 3z
m3327 -2750 c23 -120 41 -273 47 -404 l7 -136 -124 -6 c-205 -10 -357 -47
-534 -131 -230 -109 -324 -193 -670 -604 l-280 -332 -265 0 -265 0 -245 292
c-300 357 -344 404 -445 482 -101 78 -143 105 -241 154 -167 84 -346 129 -553
139 l-124 6 7 136 c6 131 24 284 47 404 l12 57 1807 0 1807 0 12 -57z m-3464
-704 c307 -42 571 -186 773 -422 242 -282 529 -629 558 -674 58 -89 84 -185
84 -307 l0 -106 -752 2 -753 3 -22 180 c-56 464 -113 1092 -113 1258 l0 77 74
0 c41 0 109 -5 151 -11z m3512 -146 c-11 -245 -55 -720 -110 -1178 l-22 -180
-753 -3 -752 -2 0 104 c0 128 29 233 89 318 66 94 561 679 641 757 170 166
402 284 630 321 41 6 82 13 90 15 8 1 55 3 104 4 l89 1 -6 -157z"/>
<path d="M870 1531 c-30 -29 -30 -32 -24 -98 7 -83 28 -117 74 -121 49 -5 80
29 80 87 -1 59 -15 120 -32 137 -7 7 -25 16 -40 19 -22 6 -33 1 -58 -24z"/>
<path d="M890 1153 c-19 -24 -21 -36 -15 -88 8 -81 22 -111 54 -125 34 -14 75
0 92 31 18 35 3 158 -24 187 -30 32 -79 30 -107 -5z"/>
<path d="M933 784 c-24 -24 -25 -29 -19 -97 4 -39 13 -81 21 -93 28 -44 92
-43 121 0 23 37 10 161 -22 193 -30 30 -69 29 -101 -3z"/>
<path d="M1389 4729 c-20 -20 -21 -29 -15 -96 3 -41 10 -82 16 -92 26 -49 123
-39 136 13 9 36 -12 155 -32 177 -24 26 -78 25 -105 -2z"/>
<path d="M1745 4365 c-28 -27 -30 -53 -15 -136 16 -86 70 -114 126 -66 26 23
27 25 19 102 -6 63 -12 83 -31 101 -30 31 -68 30 -99 -1z"/>
<path d="M3276 4366 c-19 -18 -25 -38 -31 -101 -8 -77 -7 -79 19 -102 56 -48
110 -20 126 66 15 83 13 109 -15 136 -31 31 -69 32 -99 1z"/>
<path d="M1440 4355 c-21 -22 -22 -29 -16 -97 9 -86 16 -101 54 -117 37 -15
78 0 94 34 18 39 -4 164 -33 187 -30 25 -71 23 -99 -7z"/>
<path d="M1779 4008 c-36 -12 -49 -47 -49 -127 0 -80 20 -111 74 -111 55 0 76
33 76 119 0 40 -4 81 -10 91 -13 25 -59 39 -91 28z"/>
<path d="M3283 4005 c-38 -16 -43 -30 -43 -119 0 -63 3 -75 23 -94 31 -29 80
-29 107 0 16 18 20 35 20 94 0 104 -39 147 -107 119z"/>
<path d="M1463 3986 c-26 -23 -28 -29 -28 -106 0 -74 2 -84 24 -101 32 -26 73
-24 99 4 19 20 22 35 22 104 0 76 -2 83 -26 102 -35 27 -57 26 -91 -3z"/>
<path d="M1703 3635 c-31 -22 -70 -146 -57 -182 13 -38 59 -55 101 -38 27 12
35 23 52 80 27 86 26 101 -4 130 -28 28 -61 32 -92 10z"/>
<path d="M3325 3625 c-30 -29 -31 -44 -4 -130 17 -57 25 -68 52 -80 25 -11 38
-11 62 -1 46 19 53 53 26 136 -32 99 -84 128 -136 75z"/>
<path d="M1378 3623 c-21 -24 -48 -109 -48 -149 0 -63 76 -98 119 -55 24 24
63 144 54 169 -12 35 -36 52 -73 52 -23 0 -43 -7 -52 -17z"/>
<path d="M1237 3289 c-20 -12 -77 -123 -77 -151 0 -30 12 -49 42 -64 47 -24
83 -4 119 67 16 32 29 72 29 89 0 56 -62 88 -113 59z"/>
<path d="M1577 3289 c-24 -14 -77 -122 -77 -159 0 -56 67 -91 111 -57 22 16
79 131 79 157 0 12 -11 32 -25 45 -25 26 -58 31 -88 14z"/>
<path d="M2516 3279 c-52 -41 -23 -129 44 -129 67 0 96 88 44 129 -15 12 -34
21 -44 21 -10 0 -29 -9 -44 -21z"/>
<path d="M3455 3275 c-14 -13 -25 -33 -25 -45 0 -26 57 -141 79 -157 44 -34
111 1 111 57 0 38 -53 146 -79 160 -32 16 -60 12 -86 -15z"/>
<path d="M1073 2938 c-33 -38 -66 -139 -54 -170 17 -46 76 -63 114 -33 19 13
67 131 67 161 0 8 -11 26 -25 39 -31 32 -75 33 -102 3z"/>
<path d="M1407 2948 c-22 -17 -67 -122 -67 -157 0 -52 62 -87 109 -61 28 15
75 127 72 173 -3 45 -75 74 -114 45z"/>
<path d="M3619 2942 c-14 -12 -22 -30 -22 -48 0 -38 51 -152 74 -164 48 -26
109 10 109 63 0 34 -45 138 -67 155 -24 18 -67 15 -94 -6z"/>
</g>
</svg>
