<?xml version="1.0" standalone="no"?>
<!DOCTYPE svg PUBLIC "-//W3C//DTD SVG 20010904//EN"
 "http://www.w3.org/TR/2001/REC-SVG-20010904/DTD/svg10.dtd">
<svg version="1.0" xmlns="http://www.w3.org/2000/svg"
 width="200.000000pt" height="200.000000pt" viewBox="0 0 200.000000 200.000000"
 preserveAspectRatio="xMidYMid meet">

<g transform="translate(0.000000,200.000000) scale(0.100000,-0.100000)"
fill="#000000" stroke="none">
<path d="M940 1867 c0 -7 30 -26 67 -42 199 -87 377 -267 489 -497 l36 -73 -7
-104 c-3 -57 -12 -138 -20 -180 -18 -93 -19 -114 -2 -109 16 6 44 158 52 288
6 85 11 112 30 140 64 100 94 188 68 197 -7 3 -13 -2 -13 -10 0 -19 -79 -177
-88 -177 -4 0 -23 30 -42 68 -115 222 -285 392 -484 482 -73 33 -86 36 -86 17z"/>
<path d="M857 1757 c-150 -84 -281 -235 -357 -412 -12 -29 -24 -45 -30 -39
-13 13 -76 135 -82 162 -7 25 -28 30 -28 7 0 -27 36 -109 71 -165 34 -52 36
-62 42 -165 7 -101 36 -267 50 -281 19 -19 21 16 5 93 -10 48 -21 138 -25 198
l-6 110 36 78 c80 174 208 319 345 390 40 21 70 43 67 48 -10 15 -27 10 -88
-24z"/>
<path d="M647 1403 c-18 -17 0 -23 73 -23 77 0 119 -11 162 -42 9 -7 20 -9 24
-5 11 10 -27 48 -63 63 -33 14 -184 20 -196 7z"/>
<path d="M1145 1396 c-16 -7 -38 -22 -48 -34 -27 -30 -3 -37 34 -10 26 19 46
24 125 26 72 3 94 7 94 18 0 19 -162 19 -205 0z"/>
<path d="M322 1227 c-5 -6 -22 -81 -37 -166 -23 -130 -26 -167 -20 -250 4 -53
13 -109 20 -126 14 -34 190 -273 284 -384 34 -41 70 -87 79 -103 16 -28 42
-38 42 -17 0 15 -29 55 -126 174 -120 148 -235 305 -251 343 -24 58 -22 238 6
380 19 102 26 121 37 111 11 -9 13 -36 8 -133 -6 -109 -4 -127 16 -178 12 -33
28 -58 36 -58 19 0 18 9 -7 66 -20 44 -21 59 -15 170 3 67 3 129 0 138 -10 26
-60 49 -72 33z"/>
<path d="M1665 1228 c-43 -23 -46 -36 -39 -168 6 -115 5 -130 -15 -174 -25
-57 -26 -66 -7 -66 8 0 24 25 36 58 20 51 22 69 16 178 -5 97 -3 124 8 133 11
10 18 -9 37 -111 28 -142 30 -322 6 -380 -16 -38 -131 -195 -251 -343 -97
-119 -126 -159 -126 -174 0 -21 26 -11 42 17 9 16 45 62 79 103 94 111 270
350 284 384 7 17 16 73 20 126 6 83 3 120 -20 250 -15 85 -33 159 -39 166 -8
9 -16 9 -31 1z"/>
<path d="M613 1223 c-7 -2 -13 -11 -13 -19 0 -11 8 -13 33 -9 40 8 68 -15 48
-39 -17 -20 5 -32 26 -14 9 7 39 13 67 13 69 1 136 22 136 42 0 11 -6 14 -22
9 -103 -30 -123 -31 -176 -3 -50 26 -73 31 -99 20z"/>
<path d="M1307 1203 c-46 -25 -50 -25 -105 -13 -31 7 -63 15 -69 17 -7 3 -13
-2 -13 -11 0 -19 65 -39 138 -41 29 -1 58 -7 65 -14 19 -19 29 -12 22 18 -5
24 -2 30 14 36 10 3 31 3 45 -1 31 -7 35 10 7 26 -29 15 -50 11 -104 -17z"/>
<path d="M926 962 c-12 -21 47 -62 89 -62 45 0 105 44 85 64 -5 5 -20 0 -36
-13 -33 -26 -64 -27 -97 -1 -28 22 -33 24 -41 12z"/>
<path d="M460 792 l-23 -19 60 -89 c33 -49 71 -115 86 -146 25 -55 47 -75 47
-43 0 23 -52 123 -103 200 -49 72 -49 93 -2 81 37 -9 365 -345 384 -393 15
-37 13 -51 -24 -136 -5 -12 -3 -17 9 -17 18 0 42 41 51 91 l7 36 58 0 58 0 7
-36 c9 -50 33 -91 51 -91 12 0 14 5 9 18 -37 84 -39 98 -24 135 19 48 347 384
384 393 47 12 47 -9 -2 -81 -51 -77 -103 -177 -103 -200 0 -32 22 -12 47 43
15 31 53 97 86 146 l60 89 -23 19 c-28 23 -67 23 -103 0 -15 -9 -109 -102
-209 -207 -194 -203 -216 -219 -275 -193 -16 7 -111 98 -211 202 -100 105
-192 196 -204 203 -33 18 -72 16 -98 -5z"/>
<path d="M908 778 c-15 -16 -28 -34 -28 -40 0 -18 85 -48 140 -48 50 0 140 29
140 45 0 13 -32 54 -48 61 -9 4 -53 8 -96 10 -77 3 -80 2 -108 -28z m197 -18
c16 -14 16 -15 -11 -27 -37 -15 -102 -16 -143 -2 -30 11 -31 13 -16 29 21 23
143 23 170 0z"/>
<path d="M926 651 c-3 -4 3 -16 14 -26 29 -26 132 -26 160 0 25 23 10 46 -15
25 -21 -17 -111 -18 -127 -2 -14 14 -25 15 -32 3z"/>
</g>
</svg>
