<?xml version="1.0" standalone="no"?>
<!DOCTYPE svg PUBLIC "-//W3C//DTD SVG 20010904//EN"
 "http://www.w3.org/TR/2001/REC-SVG-20010904/DTD/svg10.dtd">
<svg version="1.0" xmlns="http://www.w3.org/2000/svg"
 width="512.000000pt" height="512.000000pt" viewBox="0 0 512.000000 512.000000"
 preserveAspectRatio="xMidYMid meet">

<g transform="translate(0.000000,512.000000) scale(0.100000,-0.100000)"
fill="#000000" stroke="none">
<path d="M1303 5094 c-30 -30 -28 -48 12 -142 38 -90 55 -182 55 -298 0 -191
-45 -365 -149 -579 -72 -147 -136 -245 -256 -395 -199 -248 -395 -581 -379
-644 13 -55 84 -74 121 -33 11 12 46 72 77 132 71 135 199 328 302 455 197
243 336 508 400 763 35 139 44 366 20 486 -47 230 -127 331 -203 255z"/>
<path d="M3727 5109 c-24 -14 -62 -93 -94 -196 -25 -81 -27 -102 -27 -263 0
-191 13 -270 76 -450 32 -91 120 -274 146 -302 23 -27 87 -24 106 4 25 35 20
61 -38 181 -103 214 -141 365 -140 567 0 156 13 227 60 326 31 66 31 97 -2
123 -29 23 -59 26 -87 10z"/>
<path d="M4025 3715 c-40 -39 -33 -70 36 -155 33 -41 93 -124 134 -185 204
-306 328 -610 392 -955 22 -121 25 -497 5 -610 -56 -312 -171 -593 -352 -860
-323 -475 -570 -856 -570 -877 0 -30 42 -73 70 -73 12 0 30 5 41 10 10 6 125
169 253 363 129 194 274 411 323 482 134 198 222 371 290 570 246 716 86 1505
-445 2198 -97 127 -127 143 -177 92z"/>
<path d="M2060 3170 c-34 -34 -25 -70 36 -151 68 -91 151 -223 197 -315 127
-254 199 -565 183 -791 -12 -167 -74 -357 -151 -457 -32 -42 -32 -86 -2 -114
44 -42 86 -26 144 53 l22 30 1 -691 0 -691 23 -21 c38 -36 88 -28 112 19 13
24 15 128 15 689 l0 661 34 -35 c40 -43 76 -47 111 -11 34 33 31 59 -14 129
-53 81 -86 156 -113 252 -31 116 -31 386 0 531 59 271 194 559 366 777 25 33
46 69 46 81 0 38 -37 75 -75 75 -39 0 -50 -9 -126 -112 -115 -156 -220 -350
-284 -531 l-32 -89 -33 93 c-68 191 -223 466 -335 597 -30 34 -43 42 -71 42
-21 0 -42 -8 -54 -20z"/>
<path d="M486 2778 c-30 -27 -63 -140 -98 -337 -30 -169 -32 -490 -4 -655 55
-334 177 -629 389 -941 60 -88 209 -312 332 -497 178 -268 229 -339 250 -344
58 -14 109 41 89 95 -11 27 -393 607 -538 816 -375 539 -486 1130 -322 1719
27 96 24 122 -16 150 -31 22 -52 20 -82 -6z"/>
<path d="M1503 2278 c-11 -13 -39 -69 -63 -126 -24 -57 -47 -105 -50 -107 -4
-2 -12 13 -19 35 -21 69 -81 91 -126 45 -14 -13 -25 -33 -25 -44 0 -36 93
-294 113 -314 29 -29 76 -18 223 54 106 53 131 69 139 92 12 36 -10 78 -47 91
-20 7 -37 5 -68 -9 -22 -10 -42 -16 -44 -14 -2 2 18 55 45 117 27 63 49 122
49 132 0 9 -9 29 -21 44 -27 34 -77 36 -106 4z"/>
<path d="M3511 2274 c-12 -15 -21 -33 -21 -41 0 -8 22 -67 50 -131 27 -63 48
-117 47 -119 -2 -1 -22 4 -45 13 -54 22 -88 12 -108 -30 -29 -60 -9 -80 146
-153 144 -66 175 -73 209 -45 23 18 111 267 111 312 0 33 -38 70 -71 70 -37 0
-64 -24 -78 -71 -7 -23 -16 -38 -20 -33 -4 5 -29 60 -56 122 -26 62 -56 117
-66 122 -34 19 -76 11 -98 -16z"/>
<path d="M659 2101 c-26 -21 -28 -54 -9 -158 16 -82 43 -117 91 -115 60 2 80
45 60 135 -6 23 -13 59 -16 80 -11 71 -74 100 -126 58z"/>
<path d="M4366 2107 c-21 -15 -61 -197 -51 -234 8 -32 59 -54 95 -41 39 13 59
63 75 183 5 43 3 55 -15 78 -24 30 -73 37 -104 14z"/>
<path d="M802 1707 c-36 -38 -28 -74 31 -152 30 -39 64 -76 78 -83 47 -24 109
12 109 64 0 22 -82 142 -122 177 -28 24 -70 21 -96 -6z"/>
<path d="M4230 1717 c-27 -21 -130 -158 -130 -173 0 -48 56 -93 100 -79 24 8
118 117 135 159 15 35 3 81 -25 96 -25 13 -62 12 -80 -3z"/>
<path d="M1106 1419 c-33 -26 -36 -79 -5 -110 27 -27 157 -89 187 -89 29 0 72
42 72 70 0 12 -5 30 -10 41 -11 19 -178 109 -203 109 -8 0 -26 -9 -41 -21z"/>
<path d="M3867 1394 c-62 -32 -90 -52 -97 -70 -20 -52 15 -104 70 -104 38 1
182 81 199 111 19 34 1 81 -35 98 -36 16 -40 15 -137 -35z"/>
<path d="M1965 1345 c-61 -27 -78 -47 -78 -85 0 -41 29 -70 69 -70 38 0 98 25
132 54 46 41 14 127 -47 125 -14 0 -49 -11 -76 -24z"/>
<path d="M3036 1349 c-51 -40 -30 -99 47 -135 70 -32 110 -31 136 2 40 51 20
93 -61 128 -72 31 -88 32 -122 5z"/>
<path d="M1490 1270 c-22 -22 -26 -60 -10 -90 15 -28 64 -40 161 -40 83 0 89
1 108 26 24 30 26 43 10 77 -17 37 -50 47 -154 47 -82 0 -98 -3 -115 -20z"/>
<path d="M3403 1280 c-52 -21 -64 -88 -23 -125 16 -15 36 -17 126 -13 97 3
108 6 125 27 23 28 24 69 3 99 -14 20 -23 22 -112 21 -53 0 -107 -4 -119 -9z"/>
<path d="M1754 837 c-11 -6 -64 -60 -117 -118 -111 -122 -124 -153 -84 -193
37 -37 73 -34 119 11 l38 37 0 -131 c0 -117 2 -133 21 -157 26 -33 79 -36 109
-6 18 18 20 33 20 156 l0 136 40 -36 c48 -43 86 -47 118 -13 36 38 28 69 -37
144 -153 177 -181 198 -227 170z"/>
<path d="M3304 837 c-19 -11 -62 -55 -182 -189 -49 -55 -53 -87 -17 -123 35
-36 72 -32 117 12 l38 37 0 -128 c0 -160 11 -186 78 -186 19 0 40 8 52 20 18
18 20 33 20 157 l0 137 38 -37 c47 -46 90 -50 121 -11 41 52 31 69 -155 271
-43 47 -78 59 -110 40z"/>
</g>
</svg>
