<?xml version="1.0" standalone="no"?>
<!DOCTYPE svg PUBLIC "-//W3C//DTD SVG 20010904//EN"
 "http://www.w3.org/TR/2001/REC-SVG-20010904/DTD/svg10.dtd">
<svg version="1.0" xmlns="http://www.w3.org/2000/svg"
 width="900.000000pt" height="512.000000pt" viewBox="0 0 900.000000 512.000000"
 preserveAspectRatio="xMidYMid meet">
<metadata>
Created by potrace 1.16, written by Peter Selinger 2001-2019
</metadata>
<g transform="translate(0.000000,512.000000) scale(0.100000,-0.100000)"
fill="#000000" stroke="none">
<path d="M5402 5109 c-205 -36 -395 -183 -487 -374 -56 -117 -70 -177 -70
-305 1 -150 43 -281 127 -391 19 -24 38 -50 42 -58 6 -10 -98 -120 -378 -400
-411 -411 -409 -409 -378 -468 24 -44 55 -46 212 -14 80 16 146 28 148 27 1
-2 -27 -81 -63 -177 -36 -96 -68 -180 -70 -188 -4 -9 -23 12 -53 55 -49 71
-80 92 -123 81 -13 -4 -71 -45 -129 -93 -58 -47 -124 -102 -148 -122 l-43 -35
-144 -1 -145 -1 -284 -284 -285 -284 -61 56 c-71 66 -191 128 -295 153 -105
24 -276 15 -373 -21 -107 -39 -188 -90 -262 -165 -78 -80 -132 -168 -167 -275
-22 -69 -26 -98 -26 -205 0 -110 3 -134 27 -205 37 -110 92 -198 173 -277 118
-116 259 -181 420 -195 l74 -6 -7 -41 c-12 -69 -7 -227 10 -298 66 -282 275
-498 557 -574 98 -27 291 -25 392 4 144 41 257 111 361 223 111 120 174 254
197 421 21 149 -17 343 -92 470 -16 27 -29 52 -29 56 0 9 1773 1782 1781 1782
4 0 33 -18 66 -40 75 -50 188 -94 280 -110 98 -18 268 -8 358 20 340 106 569
438 541 787 -26 320 -234 582 -536 678 -64 21 -114 28 -201 32 l-115 6 -1 96
c-4 296 -199 553 -487 643 -72 22 -237 31 -314 17z m293 -190 c255 -94 385
-347 320 -621 -17 -72 -17 -78 -1 -103 29 -44 56 -50 141 -32 150 33 281 16
414 -53 230 -121 356 -379 310 -636 -13 -75 -86 -225 -139 -286 -53 -61 -171
-139 -251 -168 -87 -30 -240 -38 -332 -16 -87 20 -177 65 -247 123 -68 56 -92
66 -127 52 -16 -5 -201 -182 -411 -392 -211 -210 -382 -373 -379 -362 3 11 29
124 57 251 54 246 55 270 10 294 -49 26 -76 16 -228 -86 -81 -54 -150 -100
-153 -102 -4 -1 31 97 77 219 46 121 84 231 84 244 0 30 -34 71 -64 79 -14 3
-57 -1 -96 -9 -39 -8 -74 -15 -78 -15 -3 0 136 143 311 318 374 375 358 346
252 456 -283 294 -153 760 240 863 73 19 216 10 290 -18z m-873 -2478 l-58
-262 -456 -457 c-251 -251 -461 -467 -467 -479 -18 -35 -13 -58 25 -114 184
-267 156 -586 -70 -795 -238 -221 -595 -216 -821 11 -167 167 -222 403 -145
622 26 74 25 96 -3 129 -26 29 -32 30 -168 19 -344 -29 -619 295 -533 629 46
179 202 335 374 375 66 15 187 13 255 -4 94 -25 154 -63 246 -157 133 -136 98
-152 468 216 l306 303 117 -4 c85 -2 127 0 150 10 18 8 86 58 151 112 65 53
119 96 121 94 1 -2 22 -35 47 -74 111 -175 114 -176 343 -20 93 63 171 113
173 112 2 -2 -23 -122 -55 -266z"/>
<path d="M5250 3258 l-126 -128 61 -60 60 -60 128 128 127 127 -62 60 -63 60
-125 -127z"/>
<path d="M4267 2102 l-167 -167 60 -60 60 -60 170 170 170 170 -57 57 c-32 32
-60 58 -63 58 -3 0 -81 -75 -173 -168z"/>
<path d="M4268 3731 c-43 -42 -78 -81 -78 -87 0 -13 103 -114 116 -114 5 0 45
36 89 80 l79 80 -59 60 c-33 33 -62 60 -65 59 -3 0 -40 -35 -82 -78z"/>
<path d="M3730 3625 l0 -125 85 0 85 0 0 125 0 125 -85 0 -85 0 0 -125z"/>
<path d="M3166 3389 l-26 -20 0 -253 c0 -251 0 -253 23 -274 32 -30 51 -29
351 22 212 36 262 48 279 65 25 24 28 81 7 107 -8 9 -136 98 -283 196 -284
189 -301 196 -351 157z m247 -291 l92 -62 -45 -8 c-25 -5 -69 -12 -97 -17
l-53 -8 0 79 c0 43 2 78 5 78 3 0 47 -28 98 -62z"/>
</g>
</svg>
