<?xml version="1.0" standalone="no"?>
<!DOCTYPE svg PUBLIC "-//W3C//DTD SVG 20010904//EN"
 "http://www.w3.org/TR/2001/REC-SVG-20010904/DTD/svg10.dtd">
<svg version="1.0" xmlns="http://www.w3.org/2000/svg"
 width="920.000000pt" height="629.000000pt" viewBox="0 0 920.000000 629.000000"
 preserveAspectRatio="xMidYMid meet">
<metadata>
Created by potrace 1.16, written by Peter Selinger 2001-2019
</metadata>
<g transform="translate(0.000000,629.000000) scale(0.100000,-0.100000)"
fill="#000000" stroke="none">
<path d="M4790 6273 c0 -14 60 -242 134 -508 30 -104 88 -314 129 -465 42
-151 110 -396 151 -545 41 -148 87 -315 101 -370 15 -55 29 -108 31 -117 3
-11 0 -18 -9 -18 -12 0 -200 124 -452 299 -242 169 -605 408 -605 399 0 -2
160 -241 354 -533 195 -291 353 -532 351 -534 -6 -6 -496 132 -1465 414 -362
105 -543 155 -547 151 -2 -1 158 -94 354 -206 197 -112 383 -218 413 -235 30
-18 111 -64 180 -103 69 -38 198 -111 287 -161 l162 -91 560 0 561 0 75 60
c92 72 183 124 278 158 61 22 89 26 187 26 141 0 222 -19 345 -79 187 -91 330
-259 392 -460 28 -93 26 -345 -5 -440 -37 -117 -95 -211 -191 -306 -72 -71
-104 -94 -182 -133 -51 -25 -130 -55 -173 -66 -96 -24 -234 -26 -325 -5 -81
19 -211 87 -326 170 l-90 65 -566 0 -567 0 -78 -44 c-44 -23 -153 -84 -244
-133 -192 -106 -784 -432 -948 -523 -62 -35 -111 -65 -109 -67 5 -4 205 47
437 112 85 24 265 74 400 111 135 37 346 95 470 129 729 202 700 195 700 175
0 -6 -114 -178 -254 -383 -265 -389 -449 -667 -441 -667 3 0 233 152 512 339
494 329 553 367 553 357 0 -17 -138 -504 -360 -1266 -137 -471 -210 -733 -206
-737 3 -3 179 303 451 782 89 156 463 813 525 920 29 50 55 94 60 98 9 10 13
-9 69 -298 155 -810 183 -947 187 -942 6 6 104 481 169 821 71 368 81 416 94
416 9 0 121 -200 604 -1075 350 -635 411 -744 414 -741 6 5 -119 465 -373
1381 -123 441 -165 605 -162 622 2 12 46 -13 188 -110 490 -334 860 -580 864
-576 2 2 -153 239 -345 527 -192 288 -349 527 -349 532 0 4 15 4 33 -1 334
-95 958 -274 1147 -329 135 -39 333 -96 440 -126 107 -31 240 -69 294 -84 57
-17 93 -23 85 -16 -8 7 -219 130 -469 273 -1176 669 -1329 758 -1322 764 7 6
119 28 890 176 193 37 352 69 352 73 0 7 -864 181 -1212 244 -21 4 -38 10 -38
15 0 8 255 152 755 426 218 120 493 272 715 396 102 56 222 123 267 148 45 25
80 47 78 49 -7 7 -453 -114 -1510 -408 -325 -91 -487 -132 -493 -125 -3 3 66
111 154 240 416 613 545 807 541 812 -3 2 -242 -153 -532 -347 -290 -193 -529
-349 -531 -347 -4 4 45 184 161 582 319 1102 414 1438 404 1428 -7 -7 -422
-730 -644 -1123 -90 -159 -175 -309 -333 -582 -31 -54 -59 -98 -62 -98 -4 0
-12 26 -18 58 -23 118 -104 538 -163 852 -34 179 -65 329 -69 333 -6 7 -85
-380 -222 -1085 -18 -93 -36 -168 -40 -168 -4 0 -23 28 -42 63 -19 34 -121
220 -226 412 -396 720 -388 705 -530 965 -160 291 -230 414 -230 403z"/>
<path d="M5943 3600 c-58 -12 -108 -39 -204 -113 -46 -35 -102 -75 -124 -89
l-40 -26 -865 -6 c-476 -3 -1730 -6 -2787 -6 l-1923 0 0 -215 0 -215 1948 -1
c2699 0 3395 -6 3581 -29 101 -13 127 -25 211 -102 78 -71 127 -96 216 -110
83 -14 216 2 283 34 66 31 181 150 217 223 28 57 29 66 29 195 0 132 -1 137
-32 200 -92 187 -312 299 -510 260z"/>
</g>
</svg>
