<?xml version="1.0" standalone="no"?>
<!DOCTYPE svg PUBLIC "-//W3C//DTD SVG 20010904//EN"
 "http://www.w3.org/TR/2001/REC-SVG-20010904/DTD/svg10.dtd">
<svg version="1.0" xmlns="http://www.w3.org/2000/svg"
 width="920.000000pt" height="512.000000pt" viewBox="0 0 920.000000 512.000000"
 preserveAspectRatio="xMidYMid meet">
<metadata>
Created by potrace 1.16, written by Peter Selinger 2001-2019
</metadata>
<g transform="translate(0.000000,512.000000) scale(0.100000,-0.100000)"
fill="#000000" stroke="none">
<path d="M4635 4574 c-314 -289 -592 -547 -619 -574 l-49 -48 44 4 c154 16
723 64 725 61 1 -1 -60 -92 -135 -202 -497 -727 -532 -780 -482 -730 94 93
1148 1200 1146 1203 -1 1 -152 -13 -335 -33 -183 -19 -336 -35 -341 -35 -5 0
133 198 306 440 173 242 313 440 312 440 -2 0 -259 -237 -572 -526z"/>
<path d="M2440 3263 c0 -790 5 -1461 10 -1530 40 -511 296 -981 710 -1299 388
-299 948 -454 1545 -429 533 22 939 155 1302 427 406 304 700 821 743 1308 6
71 10 653 10 1523 l0 1407 -575 0 -575 0 0 -1431 c0 -1588 4 -1482 -67 -1624
-155 -311 -471 -465 -950 -465 -282 1 -495 49 -671 152 -93 54 -211 179 -261
276 -75 146 -71 51 -71 1655 l0 1437 -575 0 -575 0 0 -1407z m920 -145 c0
-878 4 -1345 11 -1388 26 -165 106 -323 227 -451 178 -189 413 -299 735 -344
l47 -6 0 -346 0 -346 -77 7 c-191 17 -455 84 -633 161 -556 238 -926 723 -989
1297 -7 64 -11 543 -11 1418 l0 1320 345 0 345 0 0 -1322z"/>
</g>
</svg>
