<?xml version="1.0" standalone="no"?>
<!DOCTYPE svg PUBLIC "-//W3C//DTD SVG 20010904//EN"
 "http://www.w3.org/TR/2001/REC-SVG-20010904/DTD/svg10.dtd">
<svg version="1.0" xmlns="http://www.w3.org/2000/svg"
 width="900.000000pt" height="520.000000pt" viewBox="0 0 900.000000 520.000000"
 preserveAspectRatio="xMidYMid meet">
<metadata>
Created by potrace 1.16, written by Peter Selinger 2001-2019
</metadata>
<g transform="translate(0.000000,520.000000) scale(0.100000,-0.100000)"
fill="#000000" stroke="none">
<path d="M6589 5143 c-349 -269 -601 -403 -1269 -673 -201 -81 -426 -177 -500
-212 -614 -293 -1049 -651 -1400 -1153 -208 -296 -386 -649 -740 -1460 -173
-398 -333 -646 -669 -1039 -60 -71 -72 -90 -67 -110 7 -27 38 -42 59 -29 19
11 174 194 266 313 41 52 77 99 82 104 15 16 156 -62 220 -122 69 -64 130
-148 158 -220 l19 -49 -96 -74 c-120 -93 -314 -257 -325 -276 -12 -20 1 -51
25 -59 23 -7 46 9 195 134 215 182 443 342 648 455 66 36 224 111 350 166 772
334 1114 507 1420 721 482 336 827 746 1115 1325 54 110 166 367 248 570 269
666 407 928 675 1274 58 74 67 97 45 119 -31 31 -55 14 -146 -105 -49 -65
-114 -157 -146 -205 l-56 -87 -45 19 c-140 60 -258 180 -328 333 l-17 38 88
56 c48 31 140 96 205 145 119 91 136 115 105 146 -22 22 -45 13 -119 -45z
m-317 -427 l37 -75 -95 -50 c-138 -74 -287 -141 -578 -260 -145 -59 -264 -114
-270 -123 -15 -24 3 -52 35 -56 45 -5 623 239 868 367 l95 49 63 -57 c35 -31
63 -59 63 -63 0 -4 -79 -118 -176 -253 -140 -196 -175 -251 -172 -273 2 -22 9
-28 33 -30 30 -3 38 7 213 253 101 140 187 255 192 255 7 0 57 -19 68 -26 2
-1 -25 -55 -61 -121 -110 -202 -197 -398 -372 -838 -113 -282 -194 -461 -291
-638 -181 -332 -377 -593 -616 -823 -378 -363 -774 -592 -1743 -1009 -307
-132 -438 -200 -634 -326 l-104 -68 -33 66 c-19 36 -49 86 -69 111 -19 25 -35
50 -35 55 0 5 29 48 64 96 127 173 162 230 312 508 423 785 736 1239 1118
1618 334 331 672 567 1150 801 119 58 221 114 226 123 10 20 -12 61 -34 61
-33 0 -399 -181 -571 -282 -645 -379 -1088 -820 -1542 -1538 -84 -132 -346
-588 -428 -745 -99 -187 -182 -324 -275 -455 -45 -63 -84 -117 -86 -119 -1 -2
-29 14 -61 35 -32 22 -77 48 -101 58 -23 10 -42 23 -42 28 0 5 29 53 64 107
117 180 213 368 326 636 376 893 640 1350 997 1725 348 366 762 629 1393 884
456 185 520 211 670 281 85 40 200 98 255 129 55 30 102 56 105 56 3 0 22 -34
42 -74z"/>
<path d="M4972 4051 c-420 -207 -724 -421 -1015 -715 -137 -138 -307 -349
-307 -381 0 -26 32 -50 55 -41 7 2 55 58 107 123 311 388 667 667 1186 927 72
36 133 70 137 76 12 19 -4 57 -25 63 -13 3 -64 -16 -138 -52z"/>
<path d="M5283 2483 c-7 -2 -48 -50 -92 -106 -106 -137 -309 -347 -439 -455
-240 -198 -441 -327 -772 -494 -110 -56 -125 -66 -128 -90 -3 -21 2 -30 21
-39 21 -9 44 -1 183 69 310 156 516 288 749 481 204 170 535 537 535 595 0 21
-26 49 -42 45 -2 0 -9 -3 -15 -6z"/>
</g>
</svg>
