<?xml version="1.0" standalone="no"?>
<!DOCTYPE svg PUBLIC "-//W3C//DTD SVG 20010904//EN"
 "http://www.w3.org/TR/2001/REC-SVG-20010904/DTD/svg10.dtd">
<svg version="1.0" xmlns="http://www.w3.org/2000/svg"
 width="920.000000pt" height="500.000000pt" viewBox="0 0 920.000000 500.000000"
 preserveAspectRatio="xMidYMid meet">
<metadata>
Created by potrace 1.16, written by Peter Selinger 2001-2019
</metadata>
<g transform="translate(0.000000,500.000000) scale(0.100000,-0.100000)"
fill="#000000" stroke="none">
<path d="M5166 3999 l-26 -20 0 -1475 c0 -1461 0 -1474 20 -1494 25 -25 62
-26 83 -2 16 17 17 136 17 1500 l0 1481 -22 15 c-29 21 -40 20 -72 -5z"/>
<path d="M4917 3572 c-16 -17 -17 -106 -17 -1070 0 -1039 0 -1052 20 -1072 25
-25 55 -25 80 0 20 20 20 33 20 1073 0 1008 -1 1055 -18 1070 -24 22 -65 21
-85 -1z"/>
<path d="M5404 3456 c-19 -14 -19 -35 -19 -951 l0 -937 24 -19 c29 -24 43 -24
72 0 l24 19 0 937 c0 916 0 937 -19 951 -25 18 -57 18 -82 0z"/>
<path d="M3467 3392 c-16 -17 -17 -94 -17 -895 l0 -877 25 -16 c26 -17 55 -13
80 12 13 14 15 124 15 888 0 833 -1 874 -18 889 -24 22 -65 21 -85 -1z"/>
<path d="M4677 3152 c-15 -17 -17 -76 -17 -650 0 -692 -3 -662 59 -662 63 0
61 -27 61 663 0 614 0 627 -20 647 -25 25 -62 26 -83 2z"/>
<path d="M3227 3092 c-15 -17 -17 -73 -17 -593 0 -434 3 -578 12 -587 7 -7 27
-12 44 -12 66 0 64 -18 64 607 0 550 0 563 -20 583 -25 25 -62 26 -83 2z"/>
<path d="M3710 3030 c-19 -19 -20 -33 -20 -528 0 -480 1 -510 18 -525 24 -22
65 -21 85 1 15 17 17 68 17 530 l0 511 -22 15 c-30 21 -54 20 -78 -4z"/>
<path d="M5644 3025 l-25 -25 3 -506 c3 -487 4 -506 22 -520 30 -21 72 -17 90
8 14 20 16 86 16 519 0 487 0 497 -21 523 -26 33 -53 33 -85 1z"/>
<path d="M6130 2910 c-19 -19 -20 -33 -20 -408 0 -364 1 -390 18 -405 24 -22
65 -21 85 1 15 17 17 59 17 405 0 374 -1 388 -20 407 -11 11 -29 20 -40 20
-11 0 -29 -9 -40 -20z"/>
<path d="M4439 2851 l-24 -19 -2 -309 c-2 -169 0 -318 2 -330 12 -53 80 -73
109 -31 14 19 16 69 16 341 l0 318 -25 24 c-29 30 -45 31 -76 6z"/>
<path d="M2985 2785 l-25 -24 0 -250 c0 -137 4 -261 9 -274 19 -49 95 -48 108
1 4 15 7 141 8 280 l0 254 -24 19 c-31 25 -47 24 -76 -6z"/>
<path d="M3955 2785 l-25 -24 0 -258 c0 -286 3 -303 59 -303 59 0 61 9 61 308
0 269 0 271 -22 286 -31 22 -45 20 -73 -9z"/>
<path d="M5900 2737 l-25 -13 -3 -213 c-3 -236 1 -251 59 -251 54 0 59 22 59
246 l0 203 -26 20 c-31 25 -31 25 -64 8z"/>
<path d="M6400 2682 c-46 -14 -50 -28 -50 -179 0 -130 2 -145 20 -163 25 -25
62 -26 85 0 15 16 17 40 18 163 2 149 -3 170 -41 179 -9 3 -24 3 -32 0z"/>
<path d="M2737 2662 c-14 -15 -17 -42 -17 -160 0 -129 2 -144 20 -162 26 -26
62 -25 86 1 17 19 19 37 19 164 0 105 -4 147 -14 159 -18 22 -74 21 -94 -2z"/>
<path d="M4186 2658 c-13 -18 -16 -49 -16 -150 0 -69 4 -138 9 -151 18 -47 88
-48 109 -2 16 36 16 262 -1 295 -18 36 -78 41 -101 8z"/>
</g>
</svg>
