<?xml version="1.0" standalone="no"?>
<!DOCTYPE svg PUBLIC "-//W3C//DTD SVG 20010904//EN"
 "http://www.w3.org/TR/2001/REC-SVG-20010904/DTD/svg10.dtd">
<svg version="1.0" xmlns="http://www.w3.org/2000/svg"
 width="900.000000pt" height="900.000000pt" viewBox="0 0 900.000000 900.000000"
 preserveAspectRatio="xMidYMid meet">
<metadata>
Created by potrace 1.16, written by Peter Selinger 2001-2019
</metadata>
<g transform="translate(0.000000,900.000000) scale(0.100000,-0.100000)"
fill="#000000" stroke="none">
<path d="M4160 8629 c-595 -57 -1147 -273 -1639 -642 -161 -120 -447 -399
-571 -556 -371 -472 -593 -995 -677 -1601 -25 -180 -25 -615 0 -800 128 -950
645 -1771 1442 -2293 335 -219 758 -389 1145 -461 l65 -12 3 -382 2 -382
-1630 0 c-1347 0 -1636 -2 -1663 -14 -38 -16 -94 -76 -103 -112 -21 -85 23
-180 100 -215 40 -18 103 -19 1773 -19 1195 0 1740 3 1760 11 42 15 102 79
113 119 6 20 10 224 10 491 l0 457 175 0 176 0 -2 -474 c-1 -532 -5 -504 74
-568 l39 -31 1736 -3 c1215 -2 1748 0 1774 8 20 6 51 22 68 36 90 76 83 218
-13 282 l-41 27 -1638 3 -1638 2 0 380 c0 296 3 381 13 384 6 3 71 17 142 32
488 102 1001 355 1385 683 622 530 1005 1237 1117 2061 21 157 24 576 5 730
-92 749 -388 1377 -897 1899 -523 537 -1207 872 -1951 955 -151 17 -502 20
-654 5z m590 -360 c757 -71 1462 -455 1951 -1063 379 -473 596 -1066 616
-1686 13 -415 -55 -795 -212 -1182 -291 -713 -884 -1293 -1608 -1572 -474
-184 -998 -238 -1497 -155 -613 102 -1154 386 -1590 835 -362 373 -619 847
-731 1348 -80 357 -90 757 -28 1126 72 427 263 872 528 1224 516 686 1310
1103 2161 1135 194 7 242 6 410 -10z"/>
<path d="M6000 7033 c-129 -96 -327 -243 -440 -326 -113 -83 -384 -285 -602
-449 l-397 -297 -90 0 c-155 1 -281 -51 -388 -159 -100 -100 -153 -229 -153
-372 0 -254 177 -473 425 -525 88 -18 132 -18 218 0 257 54 445 297 425 550
l-6 64 377 504 c613 821 875 1177 870 1181 -2 2 -110 -76 -239 -171z"/>
<path d="M620 411 c-60 -32 -93 -83 -97 -149 -5 -69 14 -111 70 -156 l39 -31
3800 -3 c2498 -1 3813 1 3838 8 76 21 141 124 124 198 -11 47 -44 97 -81 122
l-37 25 -3810 3 c-3699 2 -3812 2 -3846 -17z"/>
</g>
</svg>
