<?xml version="1.0" standalone="no"?>
<!DOCTYPE svg PUBLIC "-//W3C//DTD SVG 20010904//EN"
 "http://www.w3.org/TR/2001/REC-SVG-20010904/DTD/svg10.dtd">
<svg version="1.0" xmlns="http://www.w3.org/2000/svg"
 width="701.000000pt" height="701.000000pt" viewBox="0 0 701.000000 701.000000"
 preserveAspectRatio="xMidYMid meet">
<metadata>
Created by potrace 1.16, written by Peter Selinger 2001-2019
</metadata>
<g transform="translate(0.000000,701.000000) scale(0.100000,-0.100000)"
fill="#000000" stroke="none">
<path d="M1840 5373 c-60 -12 -285 -277 -423 -499 -191 -305 -328 -709 -373
-1094 -20 -173 -14 -483 11 -650 79 -516 297 -986 633 -1367 86 -97 127 -129
179 -139 91 -17 199 58 223 155 17 72 -4 123 -87 214 -259 282 -453 657 -536
1037 -37 167 -50 293 -50 480 1 541 207 1080 568 1480 93 103 105 124 105 190
0 129 -119 220 -250 193z"/>
<path d="M5100 5367 c-53 -17 -114 -84 -128 -140 -20 -78 0 -129 91 -227 124
-132 257 -329 350 -515 264 -532 303 -1161 107 -1720 -97 -275 -270 -566 -458
-770 -78 -85 -92 -111 -92 -175 0 -68 23 -114 78 -157 82 -63 170 -54 255 26
52 48 189 211 248 296 241 344 401 756 460 1185 18 126 18 536 1 655 -74 513
-268 961 -579 1340 -165 201 -223 237 -333 202z"/>
<path d="M2345 4876 c-55 -24 -203 -194 -299 -344 -379 -593 -401 -1345 -57
-1964 107 -193 297 -425 367 -448 116 -39 244 41 260 162 9 66 -11 114 -76
183 -353 374 -494 932 -360 1424 66 241 171 430 367 660 65 76 82 125 64 189
-14 53 -68 117 -118 138 -40 17 -108 17 -148 0z"/>
<path d="M4572 4880 c-74 -32 -132 -112 -132 -183 0 -57 22 -98 94 -177 141
-154 273 -388 335 -597 86 -291 79 -628 -20 -910 -69 -196 -175 -378 -304
-523 -67 -75 -104 -137 -105 -175 0 -70 62 -164 127 -192 41 -17 105 -17 146
0 42 18 162 147 248 268 38 53 100 157 139 231 201 386 261 812 178 1247 -43
229 -152 491 -287 693 -72 108 -204 265 -253 301 -31 23 -128 33 -166 17z"/>
<path d="M4085 4400 c-44 -10 -86 -34 -117 -67 -73 -77 -63 -198 22 -278 84
-79 162 -220 201 -362 29 -107 30 -276 0 -388 -30 -116 -99 -246 -181 -341
-38 -45 -74 -94 -80 -109 -27 -70 4 -165 73 -219 30 -24 50 -31 97 -34 80 -6
107 7 184 88 200 212 316 510 316 810 0 301 -119 602 -324 818 -71 75 -124 98
-191 82z"/>
<path d="M2855 4381 c-75 -46 -196 -203 -268 -346 -194 -388 -165 -840 77
-1204 55 -82 159 -197 197 -216 40 -21 122 -19 167 4 132 68 152 223 42 326
-47 44 -115 143 -150 216 -98 211 -98 467 0 676 35 77 76 138 151 225 63 73
76 109 65 182 -8 51 -58 115 -110 140 -47 22 -133 21 -171 -3z"/>
<path d="M3413 3896 c-101 -33 -207 -126 -252 -222 -53 -111 -51 -250 5 -360
35 -69 127 -157 201 -192 52 -24 70 -27 168 -27 99 0 116 3 168 27 207 97 301
350 206 552 -34 74 -117 157 -195 196 -60 31 -76 35 -163 37 -61 2 -111 -2
-138 -11z"/>
</g>
</svg>
