<?xml version="1.0" standalone="no"?>
<!DOCTYPE svg PUBLIC "-//W3C//DTD SVG 20010904//EN"
 "http://www.w3.org/TR/2001/REC-SVG-20010904/DTD/svg10.dtd">
<svg version="1.0" xmlns="http://www.w3.org/2000/svg"
 width="225.000000pt" height="225.000000pt" viewBox="0 0 225.000000 225.000000"
 preserveAspectRatio="xMidYMid meet">

<g transform="translate(0.000000,225.000000) scale(0.100000,-0.100000)"
fill="#000000" stroke="none">
<path d="M622 2233 c-6 -10 -6 -28 0 -47 18 -64 38 -224 38 -316 0 -209 -43
-384 -151 -611 -94 -200 -113 -280 -113 -479 0 -121 5 -177 22 -255 32 -147
80 -286 142 -410 l55 -110 510 0 510 0 55 110 c62 124 111 263 142 410 17 77
22 135 22 255 1 198 -18 278 -113 479 -109 229 -151 402 -151 616 0 95 18 242
39 312 12 40 -6 69 -36 59 -42 -13 -79 -248 -70 -436 11 -208 55 -376 153
-579 30 -63 51 -118 47 -122 -16 -14 -209 -53 -375 -74 -79 -10 -387 -7 -483
5 -106 13 -327 58 -338 69 -4 4 17 59 47 122 98 203 142 371 153 579 8 163
-27 411 -60 432 -19 12 -35 9 -45 -9z m-14 -1218 c167 -38 326 -55 517 -55
191 0 350 17 517 55 59 14 109 25 111 25 5 0 27 -83 27 -103 0 -10 -15 -17
-44 -21 -33 -5 -47 -13 -51 -28 -10 -30 9 -42 60 -39 l45 2 0 -48 0 -48 -80
-18 c-216 -49 -434 -144 -527 -231 l-58 -54 -58 54 c-96 89 -307 181 -524 230
l-83 19 0 49 0 49 48 -6 c26 -3 121 -19 212 -34 150 -25 188 -27 415 -27 271
0 309 6 303 46 l-3 23 -280 0 c-271 0 -286 1 -480 34 -110 19 -202 35 -204 37
-6 5 19 114 25 114 3 0 53 -11 112 -25z m-6 -365 c235 -66 396 -150 465 -242
22 -30 23 -40 23 -185 l0 -153 -219 0 -218 0 -42 90 c-69 148 -112 293 -145
488 -7 41 -1 41 136 2z m1182 -2 c-33 -195 -76 -340 -145 -488 l-42 -90 -218
0 -219 0 0 152 c0 148 1 153 27 190 54 78 221 168 425 227 177 51 179 52 172
9z"/>
<path d="M1540 875 c-17 -20 -8 -49 16 -53 30 -4 48 21 34 47 -13 25 -33 27
-50 6z"/>
<path d="M420 1835 c-11 -13 -11 -20 1 -43 7 -15 15 -30 17 -34 2 -4 -36 -9
-85 -10 -86 -3 -88 -3 -88 -28 0 -25 2 -25 88 -28 48 -1 87 -6 87 -10 0 -5 -7
-17 -15 -28 -20 -26 -19 -51 4 -63 13 -7 23 -7 33 2 26 20 78 104 78 125 0 24
-71 126 -91 130 -9 2 -22 -4 -29 -13z"/>
<path d="M1752 1793 c-21 -32 -42 -63 -45 -69 -7 -12 53 -109 81 -131 10 -9
20 -9 33 -2 23 12 24 32 3 64 l-16 25 85 0 c78 0 86 2 92 20 12 38 -11 50 -97
50 -44 0 -78 3 -76 8 2 4 10 19 17 34 11 22 12 30 1 43 -21 26 -38 17 -78 -42z"/>
<path d="M737 1533 c-4 -3 -7 -16 -7 -29 0 -16 10 -26 38 -37 66 -26 97 -29
112 -12 20 24 2 46 -56 66 -54 19 -77 22 -87 12z"/>
<path d="M1366 1506 c-53 -13 -73 -33 -62 -61 5 -14 14 -17 49 -12 87 12 124
40 97 72 -14 17 -17 17 -84 1z"/>
<path d="M921 1472 c-18 -34 6 -51 78 -54 51 -2 65 0 74 14 18 27 -9 45 -80
53 -55 6 -62 5 -72 -13z"/>
<path d="M1120 1465 c-6 -8 -10 -22 -8 -32 3 -15 14 -18 72 -18 73 0 96 14 83
49 -9 22 -129 23 -147 1z"/>
<path d="M1105 1276 c-27 -20 -15 -51 20 -51 23 0 31 5 33 22 4 29 -28 47 -53
29z"/>
</g>
</svg>
