<?xml version="1.0" standalone="no"?>
<!DOCTYPE svg PUBLIC "-//W3C//DTD SVG 20010904//EN"
 "http://www.w3.org/TR/2001/REC-SVG-20010904/DTD/svg10.dtd">
<svg version="1.0" xmlns="http://www.w3.org/2000/svg"
 width="900.000000pt" height="900.000000pt" viewBox="0 0 900.000000 900.000000"
 preserveAspectRatio="xMidYMid meet">
<metadata>
Created by potrace 1.16, written by Peter Selinger 2001-2019
</metadata>
<g transform="translate(0.000000,900.000000) scale(0.100000,-0.100000)"
fill="#000000" stroke="none">
<path d="M4840 8654 c-158 -28 -252 -64 -366 -139 -178 -118 -303 -296 -360
-510 -30 -111 -25 -312 10 -430 91 -301 325 -526 621 -596 121 -29 288 -29
400 0 351 91 608 386 643 739 17 168 -10 318 -84 467 -139 281 -416 460 -729
470 -60 2 -121 2 -135 -1z"/>
<path d="M4295 6600 c-108 -22 -240 -89 -325 -167 -55 -49 -124 -146 -160
-225 -63 -140 -61 -82 -58 -1613 l3 -1390 336 -3 337 -2 218 235 c121 129 220
239 222 244 2 5 -91 74 -205 153 -334 230 -362 268 -371 506 -2 72 0 132 4
132 5 0 15 -10 23 -22 30 -49 98 -121 160 -172 60 -49 960 -600 1091 -669 51
-26 62 -28 150 -25 80 2 104 7 152 31 69 34 134 95 174 163 25 42 29 59 29
124 0 60 -5 86 -26 131 -44 93 -94 134 -359 291 -877 519 -809 476 -821 522
-115 423 -288 1071 -285 1073 1 2 121 -239 266 -535 l263 -537 286 -138 287
-137 227 0 227 0 2 452 3 453 405 -453 404 -452 439 0 c259 0 437 4 435 9 -1
5 -176 218 -388 473 -211 254 -537 648 -724 873 -186 226 -360 432 -385 458
-60 63 -152 129 -232 166 -134 63 -107 61 -974 60 -434 -1 -808 -5 -830 -9z"/>
<path d="M6210 4224 c0 -4 13 -28 28 -53 114 -187 132 -391 50 -554 -34 -68
-142 -182 -212 -222 -75 -44 -171 -75 -250 -81 -113 -9 -305 48 -581 172 -65
30 -124 54 -130 53 -5 0 -149 -153 -320 -339 l-310 -339 -1096 0 c-1057 -1
-1099 -2 -1173 -21 -121 -31 -208 -82 -306 -180 -190 -189 -251 -434 -171
-690 48 -154 181 -312 326 -387 165 -85 30 -78 1475 -81 1280 -3 1285 -2 1354
18 56 18 78 31 121 74 68 68 95 137 95 246 0 142 -62 250 -175 305 -58 29 80
13 -1455 164 -338 34 -624 63 -635 65 -51 9 588 2 1725 -19 350 -7 454 -18
568 -61 212 -80 312 -225 312 -455 0 -110 -22 -200 -72 -287 l-30 -52 1584 2
1583 3 78 37 c101 48 181 127 228 223 33 67 34 74 34 185 0 108 -2 119 -31
180 -39 82 -92 140 -169 185 -112 67 -89 64 -825 105 -107 6 -395 22 -640 35
-245 14 -566 32 -715 40 -148 8 -344 19 -435 25 -91 5 -225 12 -297 16 -73 4
-133 9 -133 11 0 3 459 633 554 760 2 3 230 19 691 48 1006 64 889 52 977 97
114 56 214 189 238 315 36 194 -135 412 -354 452 -65 12 -1506 16 -1506 5z"/>
<path d="M765 3540 c-295 -32 -546 -208 -675 -475 -59 -123 -80 -200 -87 -330
-17 -300 131 -586 391 -759 140 -92 331 -143 501 -133 357 22 650 246 766 585
33 94 33 101 34 262 0 146 -3 174 -23 240 -126 400 -501 652 -907 610z"/>
<path d="M245 1486 c-95 -30 -168 -94 -213 -186 l-27 -55 -3 -382 -3 -383
4431 0 4430 0 0 340 0 340 -3577 0 -3576 0 -146 143 c-95 93 -163 151 -196
167 l-50 25 -515 2 c-396 2 -524 -1 -555 -11z"/>
</g>
</svg>
