<?xml version="1.0" standalone="no"?>
<!DOCTYPE svg PUBLIC "-//W3C//DTD SVG 20010904//EN"
 "http://www.w3.org/TR/2001/REC-SVG-20010904/DTD/svg10.dtd">
<svg version="1.0" xmlns="http://www.w3.org/2000/svg"
 width="225.000000pt" height="225.000000pt" viewBox="0 0 225.000000 225.000000"
 preserveAspectRatio="xMidYMid meet">

<g transform="translate(0.000000,225.000000) scale(0.100000,-0.100000)"
fill="#000000" stroke="none">
<path d="M1129 1919 c-24 -24 -119 -168 -119 -180 0 -11 30 -40 55 -55 15 -8
17 -15 8 -40 -16 -45 -2 -60 94 -104 l86 -40 48 17 c26 10 51 15 54 11 4 -3 2
-48 -4 -100 -5 -51 -13 -150 -16 -219 l-7 -127 -46 27 c-40 22 -59 26 -127 26
-90 0 -126 -14 -187 -72 l-36 -36 -32 37 c-40 46 -139 93 -211 101 -70 9 -160
-9 -216 -41 -24 -14 -43 -27 -43 -30 0 -2 7 -15 16 -28 l15 -24 47 26 c41 24
58 27 137 27 73 0 98 -4 131 -22 55 -29 111 -94 120 -137 6 -33 9 -36 40 -36
31 0 34 3 34 29 0 39 38 91 85 118 44 25 132 31 182 12 40 -15 91 -67 104
-106 8 -27 16 -33 38 -33 l27 0 -4 149 c-4 130 8 357 24 446 4 23 -2 38 -24
64 l-29 35 -57 -21 -57 -21 -60 26 c-33 14 -59 32 -59 40 0 10 6 12 18 7 68
-29 72 -29 86 -15 9 8 22 32 31 52 15 37 15 37 -14 52 -27 14 -29 14 -39 -9
-14 -31 -21 -31 -83 0 l-50 26 43 62 c24 34 46 62 49 62 3 0 83 -34 177 -75
l172 -75 94 -205 c110 -241 136 -334 143 -515 5 -117 4 -122 -24 -175 l-28
-54 -70 -12 c-87 -14 -140 -36 -230 -91 -56 -34 -85 -45 -138 -51 -87 -11
-176 1 -246 34 l-56 25 -17 -22 c-10 -11 -18 -25 -18 -29 0 -4 25 -18 55 -31
30 -13 55 -27 55 -30 0 -9 -74 -29 -128 -36 -57 -6 -152 12 -206 39 l-38 20
33 34 34 35 -25 20 -25 19 -92 -97 -92 -98 -1 -82 0 -83 30 0 30 0 0 65 c0 58
3 68 31 99 l31 36 37 -19 c75 -39 149 -53 245 -49 80 3 101 8 170 41 62 29 90
37 135 37 83 0 160 23 243 74 73 46 197 86 263 86 29 0 35 6 68 69 43 86 53
161 38 292 -21 174 -48 260 -147 478 -52 113 -102 213 -112 222 -26 24 -365
169 -395 169 -15 0 -36 -9 -48 -21z"/>
<path d="M1100 1230 c0 -49 1 -50 29 -50 28 0 29 2 33 50 l3 50 -32 0 c-33 0
-33 0 -33 -50z"/>
<path d="M963 1248 l-22 -10 22 -44 c22 -46 33 -52 60 -31 16 11 16 15 1 55
-18 44 -25 47 -61 30z"/>
<path d="M1239 1218 c-20 -40 -20 -42 -3 -55 29 -21 42 -15 62 30 19 42 19 42
-2 54 -31 18 -34 17 -57 -29z"/>
</g>
</svg>
